Coordinates
version=1
nRows=21
nColumns=12
inDegrees=yes

Units are S.I. units (second, meters, Newtons, ...)
Angles are in degrees

endheader
time	SC_y	SC_z	SC_x	AC_y	AC_z	AC_x	GH_y	GH_z	GH_yy	EL_x	PS_y
       0.0              -51.22          31.88          9.388          60.92          2.464         -7.923          42.65          66.77          3.367          29.89          119.7
   0.01824              -51.21          31.88          9.391          60.92          2.461         -7.924          42.64          66.76          3.388          29.89          119.7
   0.03648              -51.21          31.87          9.393          60.92          2.458         -7.925          42.62          66.76           3.41          29.89          119.7
   0.05472              -51.21          31.86          9.396          60.91          2.455         -7.926           42.6          66.75          3.434          29.89          119.6
   0.07296               -51.2          31.86          9.399          60.91          2.452         -7.927          42.59          66.75          3.459          29.89          119.6
   0.09121               -51.2          31.85          9.403          60.91          2.448         -7.929          42.56          66.74          3.485          29.89          119.6
    0.1094               -51.2          31.84          9.406          60.91          2.444          -7.93          42.54          66.73          3.514          29.89          119.6
    0.1277              -51.19          31.84           9.41          60.91           2.44         -7.932          42.52          66.73          3.544          29.89          119.6
    0.1459              -51.19          31.83          9.414          60.91          2.436         -7.933          42.49          66.72          3.577          29.89          119.6
    0.1642              -51.18          31.82          9.418          60.91          2.431         -7.935          42.47          66.71          3.612           29.9          119.6
    0.1824              -51.18          31.81          9.423          60.91          2.426         -7.937          42.44           66.7           3.65           29.9          119.6
    0.2007              -51.17           31.8          9.428          60.91          2.421         -7.938          42.41          66.69           3.69           29.9          119.5
    0.2189              -51.16          31.79          9.434          60.91          2.415         -7.941          42.38          66.68          3.734           29.9          119.5
    0.2371              -51.16          31.78          9.439          60.91          2.409         -7.943          42.34          66.67          3.781           29.9          119.5
    0.2554              -51.15          31.77          9.446          60.91          2.402         -7.945           42.3          66.65          3.832           29.9          119.5
    0.2736              -51.14          31.75          9.453          60.91          2.394         -7.948          42.26          66.64          3.887           29.9          119.5
    0.2919              -51.13          31.74           9.46          60.91          2.386         -7.951          42.21          66.62          3.947           29.9          119.4
    0.3101              -51.12          31.72          9.468          60.91          2.378         -7.954          42.16          66.61          4.013           29.9          119.4
    0.3283              -51.11           31.7          9.477          60.91          2.368         -7.957          42.11          66.59          4.084           29.9          119.4
    0.3466               -51.1          31.68          9.487          60.91          2.358         -7.961          42.05          66.57          4.162           29.9          119.4
    0.3648              -51.09          31.66          9.498          60.91          2.346         -7.965          41.98          66.55          4.248           29.9          119.3
